<mxfile host="app.diagrams.net" modified="2024-01-29T02:19:58.782Z" agent="Mozilla/5.0 (Windows NT 10.0; Win64; x64) AppleWebKit/537.36 (KHTML, like Gecko) Chrome/120.0.0.0 Safari/537.36 Edg/120.0.0.0" version="23.0.2" etag="qv38E3uujPErVBtTFy1c" type="github">
  <diagram name="페이지-1" id="97ype1f_pI0GPJTApXmA">
    <mxGraphModel>
      <root>
        <mxCell id="0" />
        <mxCell id="1" parent="0" />
      </root>
    </mxGraphModel>
  </diagram>
</mxfile>
